inDegrees=no
num_controls=7
num_derivatives=13
num_iterations=92
num_multipliers=7
num_parameters=0
num_slacks=7
num_states=26
objective=5.646265
objective_accelerations=0.232933
objective_balance=0.052364
objective_effort=0.353854
objective_height=4.919279
objective_ligament=0.087835
solver_duration=788.823942
status=Solve_Succeeded
success=true
DataType=double
version=3
OpenSimVersion=4.4-2022-07-23-0e9fedc
endheader
time	/jointset/ground_pelvis/pelvis_tilt/value	/jointset/ground_pelvis/pelvis_tx/value	/jointset/ground_pelvis/pelvis_ty/value	/jointset/hip_r/hip_flexion_r/value	/jointset/hip_r/hip_adduction_r/value	/jointset/hip_r/hip_rotation_r/value	/jointset/back/lumbar_extension/value	/jointset/patellofemoral_r/patellar_flexion_r/value	/jointset/knee_r/knee_flexion_r/value	/jointset/knee_r/knee_adduction_r/value	/jointset/knee_r/knee_rotation_r/value	/jointset/ankle_r/ankle_angle_r/value	/jointset/subtalar_r/subtalar_angle_r/value	/jointset/ground_pelvis/pelvis_tilt/speed	/jointset/ground_pelvis/pelvis_tx/speed	/jointset/ground_pelvis/pelvis_ty/speed	/jointset/hip_r/hip_flexion_r/speed	/jointset/hip_r/hip_adduction_r/speed	/jointset/hip_r/hip_rotation_r/speed	/jointset/back/lumbar_extension/speed	/jointset/patellofemoral_r/patellar_flexion_r/speed	/jointset/knee_r/knee_flexion_r/speed	/jointset/knee_r/knee_adduction_r/speed	/jointset/knee_r/knee_rotation_r/speed	/jointset/ankle_r/ankle_angle_r/speed	/jointset/subtalar_r/subtalar_angle_r/speed	/forceset/tau_hip_flexion_r	/forceset/tau_hip_adduction_r	/forceset/tau_hip_rotation_r	/forceset/tau_knee_flexion_r	/forceset/tau_ankle_angle_r	/forceset/tau_subtalar_angle_r	/forceset/tau_lumbar_extension	lambda_cid13_p0	lambda_cid14_p0	lambda_cid14_p1	lambda_cid14_p2	lambda_cid14_p3	lambda_cid14_p4	lambda_cid14_p5	/jointset/ground_pelvis/pelvis_tilt/accel	/jointset/ground_pelvis/pelvis_tx/accel	/jointset/ground_pelvis/pelvis_ty/accel	/jointset/hip_r/hip_flexion_r/accel	/jointset/hip_r/hip_adduction_r/accel	/jointset/hip_r/hip_rotation_r/accel	/jointset/back/lumbar_extension/accel	/jointset/patellofemoral_r/patellar_flexion_r/accel	/jointset/knee_r/knee_flexion_r/accel	/jointset/knee_r/knee_adduction_r/accel	/jointset/knee_r/knee_rotation_r/accel	/jointset/ankle_r/ankle_angle_r/accel	/jointset/subtalar_r/subtalar_angle_r/accel	gamma_cid13_p0	gamma_cid14_p0	gamma_cid14_p1	gamma_cid14_p2	gamma_cid14_p3	gamma_cid14_p4	gamma_cid14_p5
1	-0.03261039303377951	0.0949312281349706	0.8295724203768237	0.6993074610456917	-0.2299380921448961	-0.1227895235499613	-0.4360626850273313	0.9143526023189195	0.9143526023189548	-0.01768821644832209	0.1745306163593977	0.4363104652093108	0.1159042295436034	-0.00217708280756087	0.00799651781095731	0.01109617299259401	-0.03812039968075664	0.00319328883577115	-0.01228029263554111	0.02287552064897617	-0.0495817211681109	-0.04958172116812229	-0.001257101512619406	-1.671804970420363e-06	-0.01011434608491635	0.001607798714813668	-0.09971234230329583	0.02974257859722726	0.01299448121119012	-0.3909191186015852	-0.08661494699422809	0.001072175444224652	0.179363892932208	-17.8279628950375	-73.65158310855816	-11.45004626248051	1.165832851979437	19.92523929008216	-747.5580075765881	52.29110407602016	0.2915737957517729	-0.009275168420717747	0.7917069160552334	-2.411492538438842	0.1134931374280439	-0.3462393284010066	0.9595620819168175	-3.530179230957415	-3.530179230957291	0.5696252324718475	-0.006697515480711743	-1.585101103495517	-0.446913068074793	1.110023820845666e-09	-1.598837688761194e-09	-5.113326607710312e-09	6.730331065061398e-09	3.93969667517118e-09	-5.304970315131756e-09	-5.533808356168668e-09
1.01	-0.03261853999947009	0.0950107795120453	0.8297228013062592	0.6988068317502718	-0.2299006920195901	-0.122929508074818	-0.4357844450332123	0.9136805849359847	0.9136805849360837	-0.01767187414767711	0.1745305878379527	0.4361301010631423	0.1158976164884738	0.0005045948732267755	0.007920147854337629	0.01897535675368551	-0.06196992860861255	0.004285148429024532	-0.01571734308445945	0.03286677723710183	-0.08482880701293555	-0.08482880701293317	0.004530872732997447	-1.877124749505846e-06	-0.02595894603948746	-0.002932612632006519	-0.1000144780716974	0.02974664083904792	0.01297371981487369	-0.3902940796358979	-0.0871980870132156	0.001160707156418351	0.1796544446486252	-17.87263247189161	-73.83324658712183	-11.42033849124956	1.134749178538445	19.98018108216039	-747.6142043323255	52.31756961881499	0.2500009219602917	-0.005858538370389335	0.7853243023177024	-2.366353238561155	0.1067956902165901	-0.3425455531210669	1.033052306515362	-3.523031361637671	-3.523031361635665	0.5841791659604029	0.003643012036643291	-1.5842088842029	-0.4579357043928984	1.798988548032839e-09	-1.2770895127605e-09	-1.038641725524845e-08	1.24277310306826e-08	4.164804779642011e-09	-6.897370687894708e-09	-1.198465331350481e-08
1.02	-0.03260116295480674	0.09508975906373671	0.8299518341125416	0.6980687731318658	-0.229852420634385	-0.1231038846341433	-0.4354034635013551	0.9126558850745289	0.9126558850746667	-0.01759749297551946	0.1745306222737602	0.4357912770288712	0.1158455332125924	0.002927719262721208	0.007882152734299349	0.02682654836183634	-0.08560626428056549	0.005367540819981095	-0.01915869953272868	0.04342382819540233	-0.1201182168734735	-0.1201182168734586	0.01035067279277337	1.09196460008995e-05	-0.04180632370465813	-0.007486245435118878	-0.100316613840014	0.02975070308090054	0.01295295841826687	-0.3896690406702165	-0.08778122703219818	0.001249238868675642	0.179944996365119	-17.94080702806084	-74.02514640435432	-11.38613703727448	1.09576908936648	20.04812235007311	-747.8441208110548	52.37604058721088	0.2398631374931516	-0.00160020110445676	0.7861084854671013	-2.368853887258254	0.1115996969686724	-0.3471005282712027	1.072720955951783	-3.538644034100075	-3.538644034100193	0.5759903953036661	-0.004097097374785042	-1.58565664561546	-0.4495573593332513	2.560883456414972e-09	-1.420996069712432e-09	-1.882552652207434e-08	1.964580701601833e-08	5.514488168422325e-09	-8.598088373483381e-09	-2.266805848804539e-08
1.03	-0.03256061069779826	0.0951685705364063	0.8302592235238092	0.6970951806008466	-0.2297933633100872	-0.1233126880075406	-0.434914331434863	0.9112781486087843	0.9112781486087751	-0.01746479351172479	0.1745307918638849	0.4352940467582422	0.1157479126101542	0.005161636446162629	0.007888579521783665	0.03464494945003994	-0.1090985271121966	0.006442939119578441	-0.0226012886640145	0.05447416754512328	-0.1554290657802948	-0.1554290657803035	0.01619172031068985	1.965870134496906e-05	-0.05763222898861967	-0.01203424991698078	-0.1004703222840854	0.02965886953379905	0.01292932311182059	-0.3888621596377481	-0.08811641640568302	0.00130189878090048	0.1800746863981318	-18.03249087171748	-74.11690041043219	-11.34814155805545	1.054084188185062	20.05032132955687	-747.7152790357976	52.41067357542493	0.2119922065749041	0.003031160315578948	0.7787461839508421	-2.33735497888456	0.1053654123831901	-0.3427309153712724	1.131927790769082	-3.527304414109397	-3.527304414112846	0.5885344518037965	0.002861886148081868	-1.579931955700704	-0.4568792446480149	3.323522550319502e-09	-1.569654205572046e-09	-2.729694210134194e-08	2.687940010359606e-08	6.875646815205803e-09	-1.029991133777436e-08	-3.339465305255747e-08
